<svg width="74" height="16" viewBox="0 0 74 16" fill="none" xmlns="http://www.w3.org/2000/svg">
<path d="M12.6673 2.66659H11.334V1.99992C11.334 1.82311 11.2637 1.65354 11.1387 1.52851C11.0137 1.40349 10.8441 1.33325 10.6673 1.33325C10.4905 1.33325 10.3209 1.40349 10.1959 1.52851C10.0709 1.65354 10.0007 1.82311 10.0007 1.99992V2.66659H6.00065V1.99992C6.00065 1.82311 5.93041 1.65354 5.80539 1.52851C5.68036 1.40349 5.5108 1.33325 5.33398 1.33325C5.15717 1.33325 4.9876 1.40349 4.86258 1.52851C4.73756 1.65354 4.66732 1.82311 4.66732 1.99992V2.66659H3.33398C2.80355 2.66659 2.29484 2.8773 1.91977 3.25237C1.5447 3.62744 1.33398 4.13615 1.33398 4.66659V12.6666C1.33398 13.197 1.5447 13.7057 1.91977 14.0808C2.29484 14.4559 2.80355 14.6666 3.33398 14.6666H12.6673C13.1978 14.6666 13.7065 14.4559 14.0815 14.0808C14.4566 13.7057 14.6673 13.197 14.6673 12.6666V4.66659C14.6673 4.13615 14.4566 3.62744 14.0815 3.25237C13.7065 2.8773 13.1978 2.66659 12.6673 2.66659ZM13.334 12.6666C13.334 12.8434 13.2637 13.013 13.1387 13.138C13.0137 13.263 12.8441 13.3333 12.6673 13.3333H3.33398C3.15717 13.3333 2.9876 13.263 2.86258 13.138C2.73756 13.013 2.66732 12.8434 2.66732 12.6666V7.99992H13.334V12.6666ZM13.334 6.66659H2.66732V4.66659C2.66732 4.48977 2.73756 4.32021 2.86258 4.19518C2.9876 4.07016 3.15717 3.99992 3.33398 3.99992H4.66732V4.66659C4.66732 4.8434 4.73756 5.01297 4.86258 5.13799C4.9876 5.26301 5.15717 5.33325 5.33398 5.33325C5.5108 5.33325 5.68036 5.26301 5.80539 5.13799C5.93041 5.01297 6.00065 4.8434 6.00065 4.66659V3.99992H10.0007V4.66659C10.0007 4.8434 10.0709 5.01297 10.1959 5.13799C10.3209 5.26301 10.4905 5.33325 10.6673 5.33325C10.8441 5.33325 11.0137 5.26301 11.1387 5.13799C11.2637 5.01297 11.334 4.8434 11.334 4.66659V3.99992H12.6673C12.8441 3.99992 13.0137 4.07016 13.1387 4.19518C13.2637 4.32021 13.334 4.48977 13.334 4.66659V6.66659Z" fill="#333333"/>
<path d="M23.736 3.852C24.216 3.852 24.636 3.948 24.996 4.14C25.364 4.332 25.648 4.596 25.848 4.932C26.048 5.26 26.148 5.632 26.148 6.048C26.148 6.536 26.036 7.004 25.812 7.452C25.596 7.9 25.26 8.384 24.804 8.904C24.348 9.424 23.656 10.148 22.728 11.076H26.34L26.208 12H21.468V11.124C22.54 10.012 23.3 9.2 23.748 8.688C24.196 8.168 24.516 7.716 24.708 7.332C24.9 6.948 24.996 6.536 24.996 6.096C24.996 5.68 24.876 5.356 24.636 5.124C24.396 4.884 24.076 4.764 23.676 4.764C23.348 4.764 23.06 4.832 22.812 4.968C22.564 5.104 22.3 5.328 22.02 5.64L21.3 5.064C21.628 4.656 21.992 4.352 22.392 4.152C22.792 3.952 23.24 3.852 23.736 3.852ZM31.7922 3.972V4.8L28.7922 12.12L27.7842 11.784L30.6762 4.872H27.1242V3.972H31.7922ZM33.5843 10.476C33.8243 10.476 34.0243 10.556 34.1843 10.716C34.3443 10.876 34.4243 11.072 34.4243 11.304C34.4243 11.536 34.3443 11.736 34.1843 11.904C34.0243 12.064 33.8243 12.144 33.5843 12.144C33.3523 12.144 33.1563 12.064 32.9963 11.904C32.8363 11.736 32.7563 11.536 32.7563 11.304C32.7563 11.072 32.8363 10.876 32.9963 10.716C33.1563 10.556 33.3523 10.476 33.5843 10.476ZM38.2464 3.852C39.1344 3.852 39.8024 4.208 40.2504 4.92C40.7064 5.624 40.9344 6.648 40.9344 7.992C40.9344 9.336 40.7064 10.364 40.2504 11.076C39.8024 11.788 39.1344 12.144 38.2464 12.144C37.3584 12.144 36.6864 11.788 36.2304 11.076C35.7824 10.364 35.5584 9.336 35.5584 7.992C35.5584 6.648 35.7824 5.624 36.2304 4.92C36.6864 4.208 37.3584 3.852 38.2464 3.852ZM38.2464 4.728C37.7264 4.728 37.3384 4.984 37.0824 5.496C36.8344 6.008 36.7104 6.84 36.7104 7.992C36.7104 9.144 36.8344 9.98 37.0824 10.5C37.3384 11.012 37.7264 11.268 38.2464 11.268C38.7584 11.268 39.1424 11.012 39.3984 10.5C39.6544 9.98 39.7824 9.144 39.7824 7.992C39.7824 6.848 39.6544 6.02 39.3984 5.508C39.1424 4.988 38.7584 4.728 38.2464 4.728ZM45.1612 3.972V12H44.0572V5.148L42.1852 6.288L41.7052 5.508L44.1892 3.972H45.1612ZM47.9046 10.476C48.1446 10.476 48.3446 10.556 48.5046 10.716C48.6646 10.876 48.7446 11.072 48.7446 11.304C48.7446 11.536 48.6646 11.736 48.5046 11.904C48.3446 12.064 48.1446 12.144 47.9046 12.144C47.6726 12.144 47.4766 12.064 47.3166 11.904C47.1566 11.736 47.0766 11.536 47.0766 11.304C47.0766 11.072 47.1566 10.876 47.3166 10.716C47.4766 10.556 47.6726 10.476 47.9046 10.476ZM52.0954 3.852C52.5754 3.852 52.9954 3.948 53.3554 4.14C53.7234 4.332 54.0074 4.596 54.2074 4.932C54.4074 5.26 54.5074 5.632 54.5074 6.048C54.5074 6.536 54.3954 7.004 54.1714 7.452C53.9554 7.9 53.6194 8.384 53.1634 8.904C52.7074 9.424 52.0154 10.148 51.0874 11.076H54.6994L54.5674 12H49.8274V11.124C50.8994 10.012 51.6594 9.2 52.1074 8.688C52.5554 8.168 52.8754 7.716 53.0674 7.332C53.2594 6.948 53.3554 6.536 53.3554 6.096C53.3554 5.68 53.2354 5.356 52.9954 5.124C52.7554 4.884 52.4354 4.764 52.0354 4.764C51.7074 4.764 51.4194 4.832 51.1714 4.968C50.9234 5.104 50.6594 5.328 50.3794 5.64L49.6594 5.064C49.9874 4.656 50.3514 4.352 50.7514 4.152C51.1514 3.952 51.5994 3.852 52.0954 3.852ZM58.6488 3.852C59.5368 3.852 60.2048 4.208 60.6528 4.92C61.1088 5.624 61.3368 6.648 61.3368 7.992C61.3368 9.336 61.1088 10.364 60.6528 11.076C60.2048 11.788 59.5368 12.144 58.6488 12.144C57.7608 12.144 57.0888 11.788 56.6328 11.076C56.1848 10.364 55.9608 9.336 55.9608 7.992C55.9608 6.648 56.1848 5.624 56.6328 4.92C57.0888 4.208 57.7608 3.852 58.6488 3.852ZM58.6488 4.728C58.1288 4.728 57.7408 4.984 57.4848 5.496C57.2368 6.008 57.1128 6.84 57.1128 7.992C57.1128 9.144 57.2368 9.98 57.4848 10.5C57.7408 11.012 58.1288 11.268 58.6488 11.268C59.1608 11.268 59.5448 11.012 59.8008 10.5C60.0568 9.98 60.1848 9.144 60.1848 7.992C60.1848 6.848 60.0568 6.02 59.8008 5.508C59.5448 4.988 59.1608 4.728 58.6488 4.728ZM64.5876 3.852C65.0676 3.852 65.4876 3.948 65.8476 4.14C66.2156 4.332 66.4996 4.596 66.6996 4.932C66.8996 5.26 66.9996 5.632 66.9996 6.048C66.9996 6.536 66.8876 7.004 66.6636 7.452C66.4476 7.9 66.1116 8.384 65.6556 8.904C65.1996 9.424 64.5076 10.148 63.5796 11.076H67.1916L67.0596 12H62.3196V11.124C63.3916 10.012 64.1516 9.2 64.5996 8.688C65.0476 8.168 65.3676 7.716 65.5596 7.332C65.7516 6.948 65.8476 6.536 65.8476 6.096C65.8476 5.68 65.7276 5.356 65.4876 5.124C65.2476 4.884 64.9276 4.764 64.5276 4.764C64.1996 4.764 63.9116 4.832 63.6636 4.968C63.4156 5.104 63.1516 5.328 62.8716 5.64L62.1516 5.064C62.4796 4.656 62.8436 4.352 63.2436 4.152C63.6436 3.952 64.0916 3.852 64.5876 3.852ZM70.529 3.852C71.009 3.852 71.429 3.948 71.789 4.14C72.157 4.332 72.441 4.596 72.641 4.932C72.841 5.26 72.941 5.632 72.941 6.048C72.941 6.536 72.829 7.004 72.605 7.452C72.389 7.9 72.053 8.384 71.597 8.904C71.141 9.424 70.449 10.148 69.521 11.076H73.133L73.001 12H68.261V11.124C69.333 10.012 70.093 9.2 70.541 8.688C70.989 8.168 71.309 7.716 71.501 7.332C71.693 6.948 71.789 6.536 71.789 6.096C71.789 5.68 71.669 5.356 71.429 5.124C71.189 4.884 70.869 4.764 70.469 4.764C70.141 4.764 69.853 4.832 69.605 4.968C69.357 5.104 69.093 5.328 68.813 5.64L68.093 5.064C68.421 4.656 68.785 4.352 69.185 4.152C69.585 3.952 70.033 3.852 70.529 3.852Z" fill="#333333"/>
</svg>
