<svg width="48" height="48" viewBox="0 0 48 48" fill="none" xmlns="http://www.w3.org/2000/svg">
<path d="M23 40H11C10.4696 40 9.96086 39.7893 9.58579 39.4142C9.21071 39.0391 9 38.5304 9 38V10C9 9.46957 9.21071 8.96086 9.58579 8.58579C9.96086 8.21071 10.4696 8 11 8H21V14C21 15.5913 21.6321 17.1174 22.7574 18.2426C23.8826 19.3679 25.4087 20 27 20H33V30C33 30.5304 33.2107 31.0391 33.5858 31.4142C33.9609 31.7893 34.4696 32 35 32C35.5304 32 36.0391 31.7893 36.4142 31.4142C36.7893 31.0391 37 30.5304 37 30V18C37 18 37 18 37 17.88C36.9792 17.6963 36.9389 17.5153 36.88 17.34V17.16C36.7838 16.9544 36.6556 16.7653 36.5 16.6L24.5 4.6C24.3347 4.44443 24.1456 4.31616 23.94 4.22C23.8738 4.20842 23.8062 4.20842 23.74 4.22C23.5455 4.11601 23.3365 4.04184 23.12 4H11C9.4087 4 7.88258 4.63214 6.75736 5.75736C5.63214 6.88258 5 8.4087 5 10V38C5 39.5913 5.63214 41.1174 6.75736 42.2426C7.88258 43.3679 9.4087 44 11 44H23C23.5304 44 24.0391 43.7893 24.4142 43.4142C24.7893 43.0391 25 42.5304 25 42C25 41.4696 24.7893 40.9609 24.4142 40.5858C24.0391 40.2107 23.5304 40 23 40ZM25 10.82L30.18 16H27C26.4696 16 25.9609 15.7893 25.5858 15.4142C25.2107 15.0391 25 14.5304 25 14V10.82ZM15 28H27C27.5304 28 28.0391 27.7893 28.4142 27.4142C28.7893 27.0391 29 26.5304 29 26C29 25.4696 28.7893 24.9609 28.4142 24.5858C28.0391 24.2107 27.5304 24 27 24H15C14.4696 24 13.9609 24.2107 13.5858 24.5858C13.2107 24.9609 13 25.4696 13 26C13 26.5304 13.2107 27.0391 13.5858 27.4142C13.9609 27.7893 14.4696 28 15 28ZM23 32H15C14.4696 32 13.9609 32.2107 13.5858 32.5858C13.2107 32.9609 13 33.4696 13 34C13 34.5304 13.2107 35.0391 13.5858 35.4142C13.9609 35.7893 14.4696 36 15 36H23C23.5304 36 24.0391 35.7893 24.4142 35.4142C24.7893 35.0391 25 34.5304 25 34C25 33.4696 24.7893 32.9609 24.4142 32.5858C24.0391 32.2107 23.5304 32 23 32ZM15 20H17C17.5304 20 18.0391 19.7893 18.4142 19.4142C18.7893 19.0391 19 18.5304 19 18C19 17.4696 18.7893 16.9609 18.4142 16.5858C18.0391 16.2107 17.5304 16 17 16H15C14.4696 16 13.9609 16.2107 13.5858 16.5858C13.2107 16.9609 13 17.4696 13 18C13 18.5304 13.2107 19.0391 13.5858 19.4142C13.9609 19.7893 14.4696 20 15 20ZM42.42 32.58C42.2341 32.3925 42.0129 32.2438 41.7692 32.1422C41.5254 32.0407 41.264 31.9884 41 31.9884C40.736 31.9884 40.4746 32.0407 40.2308 32.1422C39.9871 32.2438 39.7659 32.3925 39.58 32.58L33 39.18L30.42 36.58C30.2335 36.3935 30.0121 36.2456 29.7685 36.1447C29.5249 36.0438 29.2637 35.9918 29 35.9918C28.7363 35.9918 28.4751 36.0438 28.2315 36.1447C27.9879 36.2456 27.7665 36.3935 27.58 36.58C27.3935 36.7665 27.2456 36.9879 27.1447 37.2315C27.0438 37.4751 26.9918 37.7363 26.9918 38C26.9918 38.2637 27.0438 38.5249 27.1447 38.7685C27.2456 39.0121 27.3935 39.2335 27.58 39.42L31.58 43.42C31.7659 43.6075 31.9871 43.7562 32.2308 43.8578C32.4746 43.9593 32.736 44.0116 33 44.0116C33.264 44.0116 33.5254 43.9593 33.7692 43.8578C34.0129 43.7562 34.2341 43.6075 34.42 43.42L42.42 35.42C42.6075 35.2341 42.7562 35.0129 42.8578 34.7692C42.9593 34.5254 43.0116 34.264 43.0116 34C43.0116 33.736 42.9593 33.4746 42.8578 33.2308C42.7562 32.9871 42.6075 32.7659 42.42 32.58Z" fill="#1F1D14"/>
</svg>
