<svg width="48" height="48" viewBox="0 0 48 48" fill="none" xmlns="http://www.w3.org/2000/svg">
<path d="M39.26 7.29988C39.0277 7.11193 38.7561 6.97843 38.4654 6.90921C38.1747 6.83999 37.8721 6.8368 37.58 6.89988C35.4429 7.34777 33.2367 7.35348 31.0973 6.91665C28.9579 6.47983 26.9305 5.60971 25.14 4.35988C24.8052 4.12763 24.4075 4.00317 24 4.00317C23.5925 4.00317 23.1948 4.12763 22.86 4.35988C21.0695 5.60971 19.0422 6.47983 16.9027 6.91665C14.7633 7.35348 12.5571 7.34777 10.42 6.89988C10.1279 6.8368 9.82534 6.83999 9.53461 6.90921C9.24388 6.97843 8.97236 7.11193 8.74001 7.29988C8.50797 7.48812 8.32105 7.72596 8.193 7.99592C8.06494 8.26587 7.999 8.56109 8.00001 8.85988V23.7599C7.99823 26.6274 8.68156 29.4538 9.99308 32.0038C11.3046 34.5538 13.2064 36.7535 15.54 38.4199L22.84 43.6199C23.1787 43.8611 23.5842 43.9907 24 43.9907C24.4158 43.9907 24.8213 43.8611 25.16 43.6199L32.46 38.4199C34.7937 36.7535 36.6954 34.5538 38.0069 32.0038C39.3185 29.4538 40.0018 26.6274 40 23.7599V8.85988C40.001 8.56109 39.9351 8.26587 39.807 7.99592C39.679 7.72596 39.4921 7.48812 39.26 7.29988ZM36 23.7599C36.0015 25.9894 35.4706 28.187 34.4513 30.1699C33.432 32.1528 31.9539 33.8636 30.14 35.1599L24 39.5399L17.86 35.1599C16.0461 33.8636 14.568 32.1528 13.5487 30.1699C12.5294 28.187 11.9985 25.9894 12 23.7599V11.1599C16.1929 11.5188 20.3921 10.5459 24 8.37988C27.6079 10.5459 31.8072 11.5188 36 11.1599V23.7599ZM27.08 19.1799L21.7 24.5799L19.92 22.7799C19.5434 22.4033 19.0326 22.1917 18.5 22.1917C17.9674 22.1917 17.4566 22.4033 17.08 22.7799C16.7034 23.1565 16.4918 23.6673 16.4918 24.1999C16.4918 24.7325 16.7034 25.2433 17.08 25.6199L20.28 28.8199C20.4659 29.0073 20.6871 29.1561 20.9309 29.2577C21.1746 29.3592 21.436 29.4115 21.7 29.4115C21.964 29.4115 22.2254 29.3592 22.4692 29.2577C22.7129 29.1561 22.9341 29.0073 23.12 28.8199L30 21.9999C30.3766 21.6233 30.5882 21.1125 30.5882 20.5799C30.5882 20.0473 30.3766 19.5365 30 19.1599C29.6234 18.7833 29.1126 18.5717 28.58 18.5717C28.0474 18.5717 27.5366 18.7833 27.16 19.1599L27.08 19.1799Z" fill="#1F1D14"/>
</svg>
