<svg width="184" height="54" viewBox="0 0 184 54" fill="none" xmlns="http://www.w3.org/2000/svg">
<rect width="184" height="54" rx="5" fill="#1F1D14"/>
<g clip-path="url(#clip0_3152_1592)">
<path d="M41.666 31.1665L49.9993 35.3332L58.3327 31.1665" stroke="white" stroke-width="2" stroke-linecap="round" stroke-linejoin="round"/>
<path d="M41.666 27L49.9993 31.1667L58.3327 27" stroke="white" stroke-width="2" stroke-linecap="round" stroke-linejoin="round"/>
<path d="M49.9993 18.6665L41.666 22.8332L49.9993 26.9998L58.3327 22.8332L49.9993 18.6665Z" stroke="white" stroke-width="2" stroke-linecap="round" stroke-linejoin="round"/>
</g>
<path d="M81.2 20.22L77.38 26.68L81.58 34H79.38L75.78 27.54H73.9V34H72V20.22H73.9V25.98H75.8L79.2 20.22H81.2ZM90.6406 31.54C90.6406 31.9667 90.714 32.2867 90.8606 32.5C91.0073 32.7 91.2273 32.8533 91.5206 32.96L91.1006 34.24C90.554 34.1733 90.114 34.02 89.7806 33.78C89.4473 33.54 89.2006 33.1667 89.0406 32.66C88.334 33.7133 87.2873 34.24 85.9006 34.24C84.8606 34.24 84.0406 33.9467 83.4406 33.36C82.8406 32.7733 82.5406 32.0067 82.5406 31.06C82.5406 29.94 82.9406 29.08 83.7406 28.48C84.554 27.88 85.7006 27.58 87.1806 27.58H88.8006V26.8C88.8006 26.0533 88.6206 25.52 88.2606 25.2C87.9006 24.88 87.3473 24.72 86.6006 24.72C85.8273 24.72 84.8806 24.9067 83.7606 25.28L83.3006 23.94C84.6073 23.46 85.8206 23.22 86.9406 23.22C88.1806 23.22 89.1073 23.5267 89.7206 24.14C90.334 24.74 90.6406 25.6 90.6406 26.72V31.54ZM86.3206 32.86C87.374 32.86 88.2006 32.3133 88.8006 31.22V28.8H87.4206C85.474 28.8 84.5006 29.52 84.5006 30.96C84.5006 31.5867 84.654 32.06 84.9606 32.38C85.2673 32.7 85.7206 32.86 86.3206 32.86ZM101.149 23.46L100.929 24.96H97.5489V34H95.7089V24.96H92.2289V23.46H101.149ZM109.352 31.54C109.352 31.9667 109.425 32.2867 109.572 32.5C109.718 32.7 109.938 32.8533 110.232 32.96L109.812 34.24C109.265 34.1733 108.825 34.02 108.492 33.78C108.158 33.54 107.912 33.1667 107.752 32.66C107.045 33.7133 105.998 34.24 104.612 34.24C103.572 34.24 102.752 33.9467 102.152 33.36C101.552 32.7733 101.252 32.0067 101.252 31.06C101.252 29.94 101.652 29.08 102.452 28.48C103.265 27.88 104.412 27.58 105.892 27.58H107.512V26.8C107.512 26.0533 107.332 25.52 106.972 25.2C106.612 24.88 106.058 24.72 105.312 24.72C104.538 24.72 103.592 24.9067 102.472 25.28L102.012 23.94C103.318 23.46 104.532 23.22 105.652 23.22C106.892 23.22 107.818 23.5267 108.432 24.14C109.045 24.74 109.352 25.6 109.352 26.72V31.54ZM105.032 32.86C106.085 32.86 106.912 32.3133 107.512 31.22V28.8H106.132C104.185 28.8 103.212 29.52 103.212 30.96C103.212 31.5867 103.365 32.06 103.672 32.38C103.978 32.7 104.432 32.86 105.032 32.86ZM120.85 23.46V34H119.01V24.96H115.75L115.45 28.48C115.33 29.9067 115.177 30.9733 114.99 31.68C114.817 32.3867 114.537 32.9333 114.15 33.32C113.777 33.6933 113.204 34 112.43 34.24L111.97 32.78C112.424 32.62 112.744 32.4133 112.93 32.16C113.117 31.9067 113.257 31.52 113.35 31C113.444 30.48 113.544 29.5733 113.65 28.28L114.07 23.46H120.85ZM128.614 23.22C130.094 23.22 131.241 23.7133 132.054 24.7C132.881 25.6867 133.294 27.0267 133.294 28.72C133.294 29.8133 133.107 30.78 132.734 31.62C132.361 32.4467 131.821 33.0933 131.114 33.56C130.407 34.0133 129.567 34.24 128.594 34.24C127.114 34.24 125.961 33.7467 125.134 32.76C124.307 31.7733 123.894 30.4333 123.894 28.74C123.894 27.6467 124.081 26.6867 124.454 25.86C124.827 25.02 125.367 24.3733 126.074 23.92C126.781 23.4533 127.627 23.22 128.614 23.22ZM128.614 24.7C126.787 24.7 125.874 26.0467 125.874 28.74C125.874 31.42 126.781 32.76 128.594 32.76C130.407 32.76 131.314 31.4133 131.314 28.72C131.314 26.04 130.414 24.7 128.614 24.7ZM138.174 34H136.334V23.46H142.914L142.674 24.98H138.174V34Z" fill="white"/>
<defs>
<clipPath id="clip0_3152_1592">
<rect width="20" height="20" fill="white" transform="translate(40 17)"/>
</clipPath>
</defs>
</svg>
