<svg width="20" height="20" viewBox="0 0 20 20" fill="none" xmlns="http://www.w3.org/2000/svg">
<path d="M16.7996 4.1668C15.911 3.28739 14.7374 2.75453 13.4904 2.66437C12.2435 2.57422 11.0054 2.9327 9.99958 3.67514C8.93929 2.8865 7.61957 2.5289 6.30618 2.67434C4.99279 2.81977 3.78328 3.45745 2.92122 4.45896C2.05917 5.46046 1.6086 6.7514 1.66025 8.07182C1.7119 9.39223 2.26193 10.644 3.19958 11.5751L8.19958 16.6168C8.66833 17.085 9.30374 17.3479 9.96625 17.3479C10.6287 17.3479 11.2642 17.085 11.7329 16.6168L16.7329 11.5751C17.2254 11.094 17.6179 10.5203 17.8879 9.887C18.1579 9.25369 18.3001 8.57327 18.3063 7.88483C18.3125 7.19639 18.1825 6.51352 17.924 5.87545C17.6654 5.23739 17.2833 4.65672 16.7996 4.1668ZM15.6246 10.3835L10.6246 15.3835C10.5471 15.4616 10.4549 15.5236 10.3534 15.5659C10.2518 15.6082 10.1429 15.63 10.0329 15.63C9.9229 15.63 9.81398 15.6082 9.71243 15.5659C9.61088 15.5236 9.51871 15.4616 9.44125 15.3835L4.44125 10.3835C3.78771 9.71543 3.42175 8.81803 3.42175 7.88347C3.42175 6.94892 3.78771 6.05152 4.44125 5.38347C5.10721 4.72596 6.00539 4.35728 6.94125 4.35728C7.8771 4.35728 8.77528 4.72596 9.44125 5.38347C9.51871 5.46158 9.61088 5.52357 9.71243 5.56588C9.81398 5.60819 9.9229 5.62997 10.0329 5.62997C10.1429 5.62997 10.2518 5.60819 10.3534 5.56588C10.4549 5.52357 10.5471 5.46158 10.6246 5.38347C11.3085 4.83921 12.1689 4.56574 13.0416 4.61522C13.9143 4.66469 14.7383 5.03365 15.3563 5.65172C15.9744 6.2698 16.3434 7.09375 16.3928 7.96644C16.4423 8.83913 16.1688 9.6995 15.6246 10.3835Z" fill="#1F1D14"/>
</svg>
