<svg width="55" height="12" viewBox="0 0 55 12" fill="none" xmlns="http://www.w3.org/2000/svg">
<g opacity="0.5">
<path d="M6.624 0.296V1.4L2.624 11.16L1.28 10.712L5.136 1.496H0.4V0.296H6.624ZM13.595 1.448H9.419V4.6C9.963 4.32267 10.5337 4.184 11.131 4.184C12.0483 4.184 12.7843 4.488 13.339 5.096C13.8937 5.69333 14.171 6.52 14.171 7.576C14.171 8.28 14.0163 8.90933 13.707 9.464C13.3977 10.008 12.9603 10.4347 12.395 10.744C11.8403 11.0427 11.195 11.192 10.459 11.192C9.80833 11.192 9.227 11.08 8.715 10.856C8.203 10.6213 7.72833 10.28 7.291 9.832L8.155 8.984C8.49633 9.32533 8.84833 9.58133 9.211 9.752C9.57367 9.912 9.98433 9.992 10.443 9.992C11.1257 9.992 11.659 9.77867 12.043 9.352C12.4377 8.92533 12.635 8.32267 12.635 7.544C12.635 6.76533 12.459 6.2 12.107 5.848C11.755 5.496 11.2803 5.32 10.683 5.32C10.4057 5.32 10.1497 5.352 9.915 5.416C9.68033 5.46933 9.42967 5.56 9.163 5.688H8.011V0.296H13.803L13.595 1.448ZM19.3546 0.136C20.5386 0.136 21.4293 0.610666 22.0266 1.56C22.6346 2.49867 22.9386 3.864 22.9386 5.656C22.9386 7.448 22.6346 8.81867 22.0266 9.768C21.4293 10.7173 20.5386 11.192 19.3546 11.192C18.1706 11.192 17.2746 10.7173 16.6666 9.768C16.0693 8.81867 15.7706 7.448 15.7706 5.656C15.7706 3.864 16.0693 2.49867 16.6666 1.56C17.2746 0.610666 18.1706 0.136 19.3546 0.136ZM19.3546 1.304C18.6613 1.304 18.144 1.64533 17.8026 2.328C17.472 3.01067 17.3066 4.12 17.3066 5.656C17.3066 7.192 17.472 8.30667 17.8026 9C18.144 9.68267 18.6613 10.024 19.3546 10.024C20.0373 10.024 20.5493 9.68267 20.8906 9C21.232 8.30667 21.4026 7.192 21.4026 5.656C21.4026 4.13067 21.232 3.02667 20.8906 2.344C20.5493 1.65067 20.0373 1.304 19.3546 1.304ZM32.5109 0.136C33.6949 0.136 34.5855 0.610666 35.1829 1.56C35.7909 2.49867 36.0949 3.864 36.0949 5.656C36.0949 7.448 35.7909 8.81867 35.1829 9.768C34.5855 10.7173 33.6949 11.192 32.5109 11.192C31.3269 11.192 30.4309 10.7173 29.8229 9.768C29.2255 8.81867 28.9269 7.448 28.9269 5.656C28.9269 3.864 29.2255 2.49867 29.8229 1.56C30.4309 0.610666 31.3269 0.136 32.5109 0.136ZM32.5109 1.304C31.8175 1.304 31.3002 1.64533 30.9589 2.328C30.6282 3.01067 30.4629 4.12 30.4629 5.656C30.4629 7.192 30.6282 8.30667 30.9589 9C31.3002 9.68267 31.8175 10.024 32.5109 10.024C33.1935 10.024 33.7055 9.68267 34.0469 9C34.3882 8.30667 34.5589 7.192 34.5589 5.656C34.5589 4.13067 34.3882 3.02667 34.0469 2.344C33.7055 1.65067 33.1935 1.304 32.5109 1.304ZM41.4328 0.136C42.6168 0.136 43.5074 0.610666 44.1048 1.56C44.7128 2.49867 45.0168 3.864 45.0168 5.656C45.0168 7.448 44.7128 8.81867 44.1048 9.768C43.5074 10.7173 42.6168 11.192 41.4328 11.192C40.2488 11.192 39.3528 10.7173 38.7448 9.768C38.1474 8.81867 37.8488 7.448 37.8488 5.656C37.8488 3.864 38.1474 2.49867 38.7448 1.56C39.3528 0.610666 40.2488 0.136 41.4328 0.136ZM41.4328 1.304C40.7394 1.304 40.2221 1.64533 39.8808 2.328C39.5501 3.01067 39.3848 4.12 39.3848 5.656C39.3848 7.192 39.5501 8.30667 39.8808 9C40.2221 9.68267 40.7394 10.024 41.4328 10.024C42.1154 10.024 42.6274 9.68267 42.9688 9C43.3101 8.30667 43.4808 7.192 43.4808 5.656C43.4808 4.13067 43.3101 3.02667 42.9688 2.344C42.6274 1.65067 42.1154 1.304 41.4328 1.304ZM50.3546 0.136C51.5386 0.136 52.4293 0.610666 53.0266 1.56C53.6346 2.49867 53.9386 3.864 53.9386 5.656C53.9386 7.448 53.6346 8.81867 53.0266 9.768C52.4293 10.7173 51.5386 11.192 50.3546 11.192C49.1706 11.192 48.2746 10.7173 47.6666 9.768C47.0693 8.81867 46.7706 7.448 46.7706 5.656C46.7706 3.864 47.0693 2.49867 47.6666 1.56C48.2746 0.610666 49.1706 0.136 50.3546 0.136ZM50.3546 1.304C49.6613 1.304 49.144 1.64533 48.8026 2.328C48.472 3.01067 48.3066 4.12 48.3066 5.656C48.3066 7.192 48.472 8.30667 48.8026 9C49.144 9.68267 49.6613 10.024 50.3546 10.024C51.0373 10.024 51.5493 9.68267 51.8906 9C52.232 8.30667 52.4026 7.192 52.4026 5.656C52.4026 4.13067 52.232 3.02667 51.8906 2.344C51.5493 1.65067 51.0373 1.304 50.3546 1.304Z" fill="#1F1D14"/>
<path d="M0 5.944H54.8186V6.744H0V5.944Z" fill="#1F1D14"/>
</g>
</svg>
