<svg width="48" height="48" viewBox="0 0 48 48" fill="none" xmlns="http://www.w3.org/2000/svg">
<path d="M15.5165 21.5156C16.7032 21.5156 17.8633 21.1637 18.85 20.5044C19.8367 19.8451 20.6057 18.908 21.0598 17.8117C21.5139 16.7153 21.6328 15.5089 21.4013 14.345C21.1697 13.1811 20.5983 12.112 19.7592 11.2729C18.9201 10.4338 17.851 9.86237 16.6871 9.63086C15.5232 9.39934 14.3168 9.51816 13.2204 9.97229C12.1241 10.4264 11.187 11.1955 10.5277 12.1821C9.86844 13.1688 9.51655 14.3289 9.51655 15.5156C9.51828 17.1063 10.151 18.6314 11.2758 19.7563C12.4007 20.8811 13.9258 21.5138 15.5165 21.5156ZM15.5165 13.5156C15.9121 13.5156 16.2988 13.6329 16.6277 13.8526C16.9566 14.0724 17.2129 14.3847 17.3643 14.7502C17.5157 15.1157 17.5553 15.5178 17.4781 15.9057C17.4009 16.2937 17.2105 16.6501 16.9308 16.9298C16.6511 17.2095 16.2947 17.4 15.9067 17.4771C15.5188 17.5543 15.1166 17.5147 14.7512 17.3633C14.3857 17.212 14.0734 16.9556 13.8536 16.6267C13.6338 16.2978 13.5165 15.9111 13.5165 15.5156C13.5169 14.9852 13.7277 14.4767 14.1027 14.1017C14.4777 13.7267 14.9862 13.5159 15.5165 13.5156ZM32.4853 26.4843C31.2986 26.4843 30.1386 26.8362 29.1519 27.4955C28.1652 28.1548 27.3962 29.0919 26.942 30.1882C26.4879 31.2846 26.3691 32.491 26.6006 33.6549C26.8321 34.8188 27.4035 35.8879 28.2427 36.727C29.0818 37.5661 30.1509 38.1375 31.3148 38.369C32.4786 38.6005 33.685 38.4817 34.7814 38.0276C35.8778 37.5735 36.8148 36.8044 37.4741 35.8177C38.1334 34.8311 38.4853 33.671 38.4853 32.4843C38.4836 30.8936 37.8509 29.3684 36.726 28.2436C35.6012 27.1188 34.0761 26.4861 32.4853 26.4843ZM32.4853 34.4843C32.0897 34.4843 31.7031 34.367 31.3742 34.1473C31.0453 33.9275 30.7889 33.6151 30.6375 33.2497C30.4862 32.8842 30.4466 32.4821 30.5237 32.0941C30.6009 31.7062 30.7914 31.3498 31.0711 31.0701C31.3508 30.7904 31.7072 30.5999 32.0951 30.5228C32.4831 30.4456 32.8852 30.4852 33.2507 30.6366C33.6161 30.7879 33.9285 31.0443 34.1482 31.3732C34.368 31.7021 34.4853 32.0888 34.4853 32.4843C34.4849 33.0147 34.2741 33.5232 33.8991 33.8981C33.5241 34.2731 33.0156 34.484 32.4853 34.4843ZM39.4149 8.58595C39.2293 8.40019 39.0088 8.25283 38.7662 8.15229C38.5236 8.05175 38.2635 8 38.0009 8C37.7382 8 37.4782 8.05175 37.2355 8.15229C36.9929 8.25283 36.7725 8.40019 36.5868 8.58595L8.58681 36.5859C8.39919 36.7712 8.25008 36.9918 8.14803 37.2349C8.04598 37.478 7.99302 37.7389 7.9922 38.0026C7.99137 38.2663 8.0427 38.5275 8.14323 38.7713C8.24375 39.015 8.39149 39.2365 8.57794 39.4229C8.76439 39.6094 8.98587 39.7571 9.22963 39.8576C9.47339 39.9581 9.73463 40.0094 9.9983 40.0086C10.262 40.0078 10.5229 39.9548 10.766 39.8528C11.0091 39.7507 11.2297 39.6016 11.4149 39.4139L39.4149 11.4139C39.6007 11.2283 39.748 11.0079 39.8485 10.7652C39.9491 10.5226 40.0008 10.2626 40.0008 9.99995C40.0008 9.73733 39.9491 9.47728 39.8485 9.23466C39.748 8.99204 39.6007 8.77161 39.4149 8.58595Z" fill="#1F1D14"/>
</svg>
