<svg width="16" height="17" viewBox="0 0 16 17" fill="none" xmlns="http://www.w3.org/2000/svg">
<path opacity="0.7" d="M14.4742 14.0266L12.0009 11.5733C12.961 10.3762 13.4259 8.8568 13.3001 7.32747C13.1743 5.79814 12.4674 4.37512 11.3246 3.35103C10.1818 2.32694 8.69012 1.77961 7.15619 1.82158C5.62227 1.86356 4.16273 2.49164 3.07767 3.5767C1.99262 4.66175 1.36453 6.12129 1.32256 7.65522C1.28059 9.18914 1.82792 10.6808 2.85201 11.8236C3.8761 12.9664 5.29911 13.6733 6.82845 13.7991C8.35778 13.9249 9.87719 13.46 11.0742 12.4999L13.5276 14.9533C13.5896 15.0158 13.6633 15.0654 13.7445 15.0992C13.8258 15.133 13.9129 15.1505 14.0009 15.1505C14.0889 15.1505 14.1761 15.133 14.2573 15.0992C14.3385 15.0654 14.4123 15.0158 14.4742 14.9533C14.5944 14.829 14.6616 14.6628 14.6616 14.4899C14.6616 14.317 14.5944 14.1509 14.4742 14.0266ZM7.33425 12.4999C6.41127 12.4999 5.50901 12.2262 4.74158 11.7135C3.97416 11.2007 3.37602 10.4718 3.02281 9.61913C2.6696 8.7664 2.57718 7.82809 2.75725 6.92285C2.93731 6.0176 3.38177 5.18608 4.03441 4.53344C4.68706 3.88079 5.51858 3.43634 6.42382 3.25627C7.32907 3.07621 8.26738 3.16862 9.1201 3.52183C9.97282 3.87504 10.7017 4.47318 11.2144 5.24061C11.7272 6.00804 12.0009 6.91029 12.0009 7.83327C12.0009 9.07095 11.5092 10.2579 10.6341 11.1331C9.75891 12.0083 8.57192 12.4999 7.33425 12.4999Z" fill="black"/>
</svg>
